<mxfile modified="2024-05-08T02:16:07.268Z" host="app.diagrams.net" agent="Mozilla/5.0 (Macintosh; Intel Mac OS X 10_15_7) AppleWebKit/537.36 (KHTML, like Gecko) Chrome/124.0.0.0 Safari/537.36" etag="qXQ_13GNjxf-i73Z8A-q" version="24.3.1" type="device">
  <diagram id="Ht1M8jgEwFfnCIfOTk4-" name="Page-1">
    <mxGraphModel dx="2390" dy="441" grid="1" gridSize="10" guides="1" tooltips="1" connect="1" arrows="1" fold="1" page="1" pageScale="1" pageWidth="1169" pageHeight="827" math="0" shadow="0">
      <root>
        <mxCell id="0" />
        <mxCell id="1" parent="0" />
        <mxCell id="lwhdcJEveuxUpW1EcAAU-20" value="" style="edgeStyle=orthogonalEdgeStyle;rounded=0;orthogonalLoop=1;jettySize=auto;html=1;" edge="1" parent="1" source="lwhdcJEveuxUpW1EcAAU-1" target="lwhdcJEveuxUpW1EcAAU-5">
          <mxGeometry relative="1" as="geometry" />
        </mxCell>
        <mxCell id="lwhdcJEveuxUpW1EcAAU-1" value="Browser(Chrome)" style="outlineConnect=0;gradientColor=none;fontColor=#545B64;strokeColor=none;fillColor=#879196;dashed=0;verticalLabelPosition=bottom;verticalAlign=top;align=center;html=1;fontSize=12;fontStyle=0;aspect=fixed;shape=mxgraph.aws4.illustration_desktop;pointerEvents=1;labelBackgroundColor=#ffffff;" vertex="1" parent="1">
          <mxGeometry x="50" y="1160" width="100" height="91" as="geometry" />
        </mxCell>
        <mxCell id="lwhdcJEveuxUpW1EcAAU-3" value="Docker Compose" style="points=[[0,0],[0.25,0],[0.5,0],[0.75,0],[1,0],[1,0.25],[1,0.5],[1,0.75],[1,1],[0.75,1],[0.5,1],[0.25,1],[0,1],[0,0.75],[0,0.5],[0,0.25]];outlineConnect=0;gradientColor=none;html=1;whiteSpace=wrap;fontSize=12;fontStyle=0;container=1;pointerEvents=0;collapsible=0;recursiveResize=0;shape=mxgraph.aws4.group;grIcon=mxgraph.aws4.group_elastic_beanstalk;strokeColor=#D86613;fillColor=none;verticalAlign=top;align=left;spacingLeft=30;fontColor=#D86613;dashed=0;" vertex="1" parent="1">
          <mxGeometry x="420" y="880" width="720" height="750" as="geometry" />
        </mxCell>
        <mxCell id="lwhdcJEveuxUpW1EcAAU-2" value="Reversed Proxy" style="sketch=0;outlineConnect=0;fontColor=#232F3E;gradientColor=none;fillColor=#8C4FFF;strokeColor=none;dashed=0;verticalLabelPosition=bottom;verticalAlign=top;align=center;html=1;fontSize=12;fontStyle=0;aspect=fixed;pointerEvents=1;shape=mxgraph.aws4.network_load_balancer;" vertex="1" parent="lwhdcJEveuxUpW1EcAAU-3">
          <mxGeometry x="56.71" y="305.5" width="100" height="100" as="geometry" />
        </mxCell>
        <mxCell id="lwhdcJEveuxUpW1EcAAU-6" value="Rental DB" style="image;aspect=fixed;html=1;points=[];align=center;fontSize=12;image=img/lib/azure2/other/Arc_PostgreSQL.svg;" vertex="1" parent="lwhdcJEveuxUpW1EcAAU-3">
          <mxGeometry x="588.21" y="455" width="65.08" height="68" as="geometry" />
        </mxCell>
        <mxCell id="lwhdcJEveuxUpW1EcAAU-39" style="edgeStyle=orthogonalEdgeStyle;rounded=0;orthogonalLoop=1;jettySize=auto;html=1;" edge="1" parent="lwhdcJEveuxUpW1EcAAU-3" source="lwhdcJEveuxUpW1EcAAU-10" target="lwhdcJEveuxUpW1EcAAU-38">
          <mxGeometry relative="1" as="geometry" />
        </mxCell>
        <mxCell id="lwhdcJEveuxUpW1EcAAU-10" value="User Service" style="sketch=0;points=[[0,0,0],[0.25,0,0],[0.5,0,0],[0.75,0,0],[1,0,0],[0,1,0],[0.25,1,0],[0.5,1,0],[0.75,1,0],[1,1,0],[0,0.25,0],[0,0.5,0],[0,0.75,0],[1,0.25,0],[1,0.5,0],[1,0.75,0]];outlineConnect=0;fontColor=#232F3E;fillColor=#ED7100;strokeColor=#ffffff;dashed=0;verticalLabelPosition=bottom;verticalAlign=top;align=center;html=1;fontSize=12;fontStyle=0;aspect=fixed;shape=mxgraph.aws4.resourceIcon;resIcon=mxgraph.aws4.ecs;" vertex="1" parent="lwhdcJEveuxUpW1EcAAU-3">
          <mxGeometry x="288.21" y="120" width="78" height="78" as="geometry" />
        </mxCell>
        <mxCell id="lwhdcJEveuxUpW1EcAAU-32" style="edgeStyle=orthogonalEdgeStyle;rounded=0;orthogonalLoop=1;jettySize=auto;html=1;" edge="1" parent="lwhdcJEveuxUpW1EcAAU-3" source="lwhdcJEveuxUpW1EcAAU-11" target="lwhdcJEveuxUpW1EcAAU-15">
          <mxGeometry relative="1" as="geometry" />
        </mxCell>
        <mxCell id="lwhdcJEveuxUpW1EcAAU-35" style="edgeStyle=orthogonalEdgeStyle;rounded=0;orthogonalLoop=1;jettySize=auto;html=1;" edge="1" parent="lwhdcJEveuxUpW1EcAAU-3" source="lwhdcJEveuxUpW1EcAAU-11" target="lwhdcJEveuxUpW1EcAAU-10">
          <mxGeometry relative="1" as="geometry" />
        </mxCell>
        <mxCell id="lwhdcJEveuxUpW1EcAAU-40" style="edgeStyle=orthogonalEdgeStyle;rounded=0;orthogonalLoop=1;jettySize=auto;html=1;" edge="1" parent="lwhdcJEveuxUpW1EcAAU-3" source="lwhdcJEveuxUpW1EcAAU-11">
          <mxGeometry relative="1" as="geometry">
            <mxPoint x="460" y="90" as="targetPoint" />
          </mxGeometry>
        </mxCell>
        <mxCell id="lwhdcJEveuxUpW1EcAAU-11" value="Vehicle Service" style="sketch=0;points=[[0,0,0],[0.25,0,0],[0.5,0,0],[0.75,0,0],[1,0,0],[0,1,0],[0.25,1,0],[0.5,1,0],[0.75,1,0],[1,1,0],[0,0.25,0],[0,0.5,0],[0,0.75,0],[1,0.25,0],[1,0.5,0],[1,0.75,0]];outlineConnect=0;fontColor=#232F3E;fillColor=#ED7100;strokeColor=#ffffff;dashed=0;verticalLabelPosition=bottom;verticalAlign=top;align=center;html=1;fontSize=12;fontStyle=0;aspect=fixed;shape=mxgraph.aws4.resourceIcon;resIcon=mxgraph.aws4.ecs;" vertex="1" parent="lwhdcJEveuxUpW1EcAAU-3">
          <mxGeometry x="288.21" y="290" width="78" height="78" as="geometry" />
        </mxCell>
        <mxCell id="lwhdcJEveuxUpW1EcAAU-31" style="edgeStyle=orthogonalEdgeStyle;rounded=0;orthogonalLoop=1;jettySize=auto;html=1;" edge="1" parent="lwhdcJEveuxUpW1EcAAU-3" source="lwhdcJEveuxUpW1EcAAU-12" target="lwhdcJEveuxUpW1EcAAU-6">
          <mxGeometry relative="1" as="geometry" />
        </mxCell>
        <mxCell id="lwhdcJEveuxUpW1EcAAU-41" style="edgeStyle=orthogonalEdgeStyle;rounded=0;orthogonalLoop=1;jettySize=auto;html=1;exitX=1;exitY=0.5;exitDx=0;exitDy=0;exitPerimeter=0;" edge="1" parent="lwhdcJEveuxUpW1EcAAU-3" source="lwhdcJEveuxUpW1EcAAU-12" target="lwhdcJEveuxUpW1EcAAU-38">
          <mxGeometry relative="1" as="geometry" />
        </mxCell>
        <mxCell id="lwhdcJEveuxUpW1EcAAU-12" value="Rental Service" style="sketch=0;points=[[0,0,0],[0.25,0,0],[0.5,0,0],[0.75,0,0],[1,0,0],[0,1,0],[0.25,1,0],[0.5,1,0],[0.75,1,0],[1,1,0],[0,0.25,0],[0,0.5,0],[0,0.75,0],[1,0.25,0],[1,0.5,0],[1,0.75,0]];outlineConnect=0;fontColor=#232F3E;fillColor=#ED7100;strokeColor=#ffffff;dashed=0;verticalLabelPosition=bottom;verticalAlign=top;align=center;html=1;fontSize=12;fontStyle=0;aspect=fixed;shape=mxgraph.aws4.resourceIcon;resIcon=mxgraph.aws4.ecs;" vertex="1" parent="lwhdcJEveuxUpW1EcAAU-3">
          <mxGeometry x="288.21" y="450" width="78" height="78" as="geometry" />
        </mxCell>
        <mxCell id="lwhdcJEveuxUpW1EcAAU-14" value="User DB" style="image;aspect=fixed;html=1;points=[];align=center;fontSize=12;image=img/lib/azure2/other/Arc_PostgreSQL.svg;" vertex="1" parent="lwhdcJEveuxUpW1EcAAU-3">
          <mxGeometry x="588.21" y="130" width="65.08" height="68" as="geometry" />
        </mxCell>
        <mxCell id="lwhdcJEveuxUpW1EcAAU-15" value="Vehicle DB" style="image;aspect=fixed;html=1;points=[];align=center;fontSize=12;image=img/lib/azure2/other/Arc_PostgreSQL.svg;" vertex="1" parent="lwhdcJEveuxUpW1EcAAU-3">
          <mxGeometry x="588.21" y="295" width="65.08" height="68" as="geometry" />
        </mxCell>
        <mxCell id="lwhdcJEveuxUpW1EcAAU-17" value="Kafka Stream" style="sketch=0;points=[[0,0,0],[0.25,0,0],[0.5,0,0],[0.75,0,0],[1,0,0],[0,1,0],[0.25,1,0],[0.5,1,0],[0.75,1,0],[1,1,0],[0,0.25,0],[0,0.5,0],[0,0.75,0],[1,0.25,0],[1,0.5,0],[1,0.75,0]];outlineConnect=0;fontColor=#232F3E;fillColor=#8C4FFF;strokeColor=#ffffff;dashed=0;verticalLabelPosition=bottom;verticalAlign=top;align=center;html=1;fontSize=12;fontStyle=0;aspect=fixed;shape=mxgraph.aws4.resourceIcon;resIcon=mxgraph.aws4.managed_streaming_for_kafka;" vertex="1" parent="lwhdcJEveuxUpW1EcAAU-3">
          <mxGeometry x="289.21" y="600" width="78" height="78" as="geometry" />
        </mxCell>
        <mxCell id="lwhdcJEveuxUpW1EcAAU-18" value="F&amp;amp;I Consumer" style="fillColor=#c0f5a9;dashed=0;outlineConnect=0;strokeWidth=2;html=1;align=center;fontSize=8;verticalLabelPosition=bottom;verticalAlign=top;shape=mxgraph.eip.event_driven_consumer;" vertex="1" parent="lwhdcJEveuxUpW1EcAAU-3">
          <mxGeometry x="448.21" y="604" width="90" height="70" as="geometry" />
        </mxCell>
        <mxCell id="lwhdcJEveuxUpW1EcAAU-19" value="F&amp;amp;I DB" style="image;aspect=fixed;html=1;points=[];align=center;fontSize=12;image=img/lib/azure2/other/Arc_PostgreSQL.svg;" vertex="1" parent="lwhdcJEveuxUpW1EcAAU-3">
          <mxGeometry x="598.21" y="600" width="65.08" height="68" as="geometry" />
        </mxCell>
        <mxCell id="lwhdcJEveuxUpW1EcAAU-24" style="edgeStyle=orthogonalEdgeStyle;rounded=0;orthogonalLoop=1;jettySize=auto;html=1;entryX=0;entryY=0.5;entryDx=0;entryDy=0;entryPerimeter=0;" edge="1" parent="lwhdcJEveuxUpW1EcAAU-3" source="lwhdcJEveuxUpW1EcAAU-2" target="lwhdcJEveuxUpW1EcAAU-10">
          <mxGeometry relative="1" as="geometry" />
        </mxCell>
        <mxCell id="lwhdcJEveuxUpW1EcAAU-25" style="edgeStyle=orthogonalEdgeStyle;rounded=0;orthogonalLoop=1;jettySize=auto;html=1;entryX=0;entryY=0.5;entryDx=0;entryDy=0;entryPerimeter=0;" edge="1" parent="lwhdcJEveuxUpW1EcAAU-3" source="lwhdcJEveuxUpW1EcAAU-2" target="lwhdcJEveuxUpW1EcAAU-11">
          <mxGeometry relative="1" as="geometry" />
        </mxCell>
        <mxCell id="lwhdcJEveuxUpW1EcAAU-26" style="edgeStyle=orthogonalEdgeStyle;rounded=0;orthogonalLoop=1;jettySize=auto;html=1;entryX=0;entryY=0.5;entryDx=0;entryDy=0;entryPerimeter=0;" edge="1" parent="lwhdcJEveuxUpW1EcAAU-3" source="lwhdcJEveuxUpW1EcAAU-2" target="lwhdcJEveuxUpW1EcAAU-12">
          <mxGeometry relative="1" as="geometry" />
        </mxCell>
        <mxCell id="lwhdcJEveuxUpW1EcAAU-27" style="edgeStyle=orthogonalEdgeStyle;rounded=0;orthogonalLoop=1;jettySize=auto;html=1;entryX=0.5;entryY=0;entryDx=0;entryDy=0;entryPerimeter=0;" edge="1" parent="lwhdcJEveuxUpW1EcAAU-3" source="lwhdcJEveuxUpW1EcAAU-12" target="lwhdcJEveuxUpW1EcAAU-17">
          <mxGeometry relative="1" as="geometry" />
        </mxCell>
        <mxCell id="lwhdcJEveuxUpW1EcAAU-28" style="edgeStyle=orthogonalEdgeStyle;rounded=0;orthogonalLoop=1;jettySize=auto;html=1;entryX=0;entryY=0.5;entryDx=0;entryDy=0;entryPerimeter=0;" edge="1" parent="lwhdcJEveuxUpW1EcAAU-3" source="lwhdcJEveuxUpW1EcAAU-17" target="lwhdcJEveuxUpW1EcAAU-18">
          <mxGeometry relative="1" as="geometry" />
        </mxCell>
        <mxCell id="lwhdcJEveuxUpW1EcAAU-30" style="edgeStyle=orthogonalEdgeStyle;rounded=0;orthogonalLoop=1;jettySize=auto;html=1;entryX=-0.077;entryY=0.574;entryDx=0;entryDy=0;entryPerimeter=0;" edge="1" parent="lwhdcJEveuxUpW1EcAAU-3" source="lwhdcJEveuxUpW1EcAAU-18" target="lwhdcJEveuxUpW1EcAAU-19">
          <mxGeometry relative="1" as="geometry" />
        </mxCell>
        <mxCell id="lwhdcJEveuxUpW1EcAAU-34" style="edgeStyle=orthogonalEdgeStyle;rounded=0;orthogonalLoop=1;jettySize=auto;html=1;entryX=-0.051;entryY=0.426;entryDx=0;entryDy=0;entryPerimeter=0;" edge="1" parent="lwhdcJEveuxUpW1EcAAU-3" source="lwhdcJEveuxUpW1EcAAU-10" target="lwhdcJEveuxUpW1EcAAU-14">
          <mxGeometry relative="1" as="geometry" />
        </mxCell>
        <mxCell id="lwhdcJEveuxUpW1EcAAU-36" style="edgeStyle=orthogonalEdgeStyle;rounded=0;orthogonalLoop=1;jettySize=auto;html=1;exitX=0.5;exitY=1;exitDx=0;exitDy=0;exitPerimeter=0;entryX=0.5;entryY=0;entryDx=0;entryDy=0;entryPerimeter=0;" edge="1" parent="lwhdcJEveuxUpW1EcAAU-3" source="lwhdcJEveuxUpW1EcAAU-11" target="lwhdcJEveuxUpW1EcAAU-12">
          <mxGeometry relative="1" as="geometry" />
        </mxCell>
        <mxCell id="lwhdcJEveuxUpW1EcAAU-38" value="Redis" style="sketch=0;outlineConnect=0;fontColor=#232F3E;gradientColor=none;fillColor=#C925D1;strokeColor=none;dashed=0;verticalLabelPosition=bottom;verticalAlign=top;align=center;html=1;fontSize=12;fontStyle=0;aspect=fixed;pointerEvents=1;shape=mxgraph.aws4.elasticache_for_redis;" vertex="1" parent="lwhdcJEveuxUpW1EcAAU-3">
          <mxGeometry x="420" y="30" width="78" height="69" as="geometry" />
        </mxCell>
        <mxCell id="lwhdcJEveuxUpW1EcAAU-21" style="edgeStyle=orthogonalEdgeStyle;rounded=0;orthogonalLoop=1;jettySize=auto;html=1;" edge="1" parent="1" source="lwhdcJEveuxUpW1EcAAU-5" target="lwhdcJEveuxUpW1EcAAU-2">
          <mxGeometry relative="1" as="geometry" />
        </mxCell>
        <mxCell id="lwhdcJEveuxUpW1EcAAU-5" value="React" style="sketch=0;outlineConnect=0;fontColor=#232F3E;gradientColor=none;fillColor=#232F3D;strokeColor=none;dashed=0;verticalLabelPosition=bottom;verticalAlign=top;align=center;html=1;fontSize=12;fontStyle=0;aspect=fixed;pointerEvents=1;shape=mxgraph.aws4.programming_language;" vertex="1" parent="1">
          <mxGeometry x="230" y="1180" width="78" height="51" as="geometry" />
        </mxCell>
      </root>
    </mxGraphModel>
  </diagram>
</mxfile>
